#!OML:ASF E:\motion texture\Top Level 1\Subject 1\Session 1\male.ASF
:FULLY-SPECIFIED
:DEGREES
190
root 5.16821 17.6844 5.38525 24.8553 -84.001 -15.7839
lowerback -0.918917 -2.71445 1.54881
upperback -0.476602 -3.72623 4.6963
thorax 0.2415 -1.90135 3.91661
lowerneck -10.1909 -6.7165 -7.07033
upperneck 22.9883 -9.2561 3.02669
head 9.39033 -4.78228 1.13638
rclavicle -4.77083e-015 -7.31528e-014
rhumerus -52.6142 -43.95 -40.7152
rradius 13.4419
rwrist 35.7603
rhand -13.5179 -29.5538
rfingers 7.12502
rthumb 12.594 -59.1542
lclavicle -4.77083e-015 -7.31528e-014
lhumerus -31.8463 25.5297 78.0009
lradius 21.7621
lwrist -21.5069
lhand -16.6618 32.609
lfingers 7.12502
lthumb 9.56166 62.3721
rfemur -33.1304 0.352992 20.1793
rtibia 19.9658
rfoot 5.53778 -16.8857
rtoes 22.0486
lfemur 2.05692 -5.43022 -18.2081
ltibia 28.2542
lfoot -7.90991 -5.21892
ltoes -26.2445
191
root 5.00979 17.7028 5.37402 27.0167 -84.0699 -18.0217
lowerback -0.850114 -2.75224 1.73027
upperback -0.501406 -3.78024 4.83566
thorax 0.178455 -1.93093 3.96348
lowerneck -10.2271 -6.68501 -7.03738
upperneck 23.1687 -9.22599 2.98457
head 9.45476 -4.77308 1.11627
rclavicle 2.38542e-014 -2.54444e-014
rhumerus -50.8033 -43.6633 -42.5517
rradius 13.5128
rwrist 35.2208
rhand -13.7298 -29.6843
rfingers 7.12502
rthumb 12.3896 -59.2971
lclavicle 2.38542e-014 -2.54444e-014
lhumerus -31.0636 25.0029 79.2901
lradius 21.4123
lwrist -22.275
lhand -16.1102 32.3368
lfingers 7.12502
lthumb 10.0938 62.0747
rfemur -32.7477 0.410951 20.6043
rtibia 20.5298
rfoot 4.80911 -16.4701
rtoes 22.5214
lfemur 1.48913 -5.26661 -17.8123
ltibia 29.8452
lfoot -6.27973 -5.58593
ltoes -26.5533
192
root 4.8529 17.7225 5.36236 29.5887 -84.0893 -20.697
lowerback -0.768008 -2.80068 1.95578
upperback -0.515413 -3.84902 4.98618
thorax 0.117732 -1.96846 3.99778
lowerneck -10.2785 -6.64525 -7.01234
upperneck 23.3527 -9.18682 2.9638
head 9.52446 -4.75789 1.10519
rclavicle -4.90998e-014 -3.49861e-014
rhumerus -48.8036 -43.2034 -44.6268
rradius 13.6217
rwrist 34.5086
rhand -13.9046 -29.7943
rfingers 7.12502
rthumb 12.2211 -59.4173
lclavicle -4.90998e-014 -3.49861e-014
lhumerus -30.2299 24.0971 80.7359
lradius 21.1994
lwrist -22.7876
lhand -15.4104 32.1315
lfingers 7.12502
lthumb 10.7689 61.8354
rfemur -32.2483 0.452446 21.0948
rtibia 20.9294
rfoot 4.0797 -16.0789
rtoes 22.6598
lfemur 0.852718 -5.07129 -17.3372
ltibia 31.4925
lfoot -4.38829 -5.92684
ltoes -26.5926
193
root 4.69702 17.743 5.34994 32.5336 -84.0328 -23.757
lowerback -0.692413 -2.86362 2.231
upperback -0.526644 -3.93854 5.15354
thorax 0.0623892 -2.01706 4.0215
lowerneck -10.3328 -6.59814 -6.99657
upperneck 23.5289 -9.13995 2.96504
head 9.5933 -4.73752 1.10413
rclavicle -1.96797e-014 -2.22639e-014
rhumerus -46.6825 -42.5817 -46.8514
rradius 13.7628
rwrist 33.6667
rhand -14.0308 -29.9107
rfingers 7.12502
rthumb 12.0994 -59.5408
lclavicle -1.96797e-014 -2.22639e-014
lhumerus -29.3767 22.7977 82.3102
lradius 21.1283
lwrist -23.0498
lhand -14.5694 31.928
lfingers 7.12502
lthumb 11.58 61.588
rfemur -31.6514 0.483701 21.6593
rtibia 21.1567
rfoot 3.43334 -15.7443
rtoes 22.6156
lfemur 0.146848 -4.86099 -16.7706
ltibia 33.1701
lfoot -2.24415 -6.23809
ltoes -26.2578
194
root 4.54275 17.7632 5.33657 35.7293 -83.9163 -27.0517
lowerback -0.657827 -2.93548 2.54322
upperback -0.536927 -4.04298 5.33101
thorax 0.0297318 -2.07373 4.03296
lowerneck -10.3843 -6.5426 -6.97524
upperneck 23.6835 -9.08346 2.97852
head 9.65386 -4.71071 1.1081
rclavicle 2.78299e-015 1.59028e-015
rhumerus -44.4461 -41.7653 -49.2321
rradius 13.9409
rwrist 32.6597
rhand -14.1157 -30.0019
rfingers 7.12502
rthumb 12.0175 -59.6369
lclavicle 2.78299e-015 1.59028e-015
lhumerus -28.5054 21.1271 83.9767
lradius 21.184
lwrist -23.1134
lhand -13.6461 31.6769
lfingers 7.12502
lthumb 12.4703 61.2849
rfemur -31.0252 0.53655 22.2776
rtibia 21.2631
rfoot 2.88455 -15.4884
rtoes 22.4492
lfemur -0.648912 -4.63257 -16.1336
ltibia 34.8754
lfoot 0.0930156 -6.51604
ltoes -25.4753
